<?xml version="1.0" encoding="utf-8"?>
<!-- Generator: Adobe Illustrator 26.1.0, SVG Export Plug-In . SVG Version: 6.00 Build 0)  -->
<svg version="1.1" id="Layer_1" xmlns="http://www.w3.org/2000/svg" xmlns:xlink="http://www.w3.org/1999/xlink" x="0px" y="0px"
	 viewBox="0 0 1056.12 218.37" style="enable-background:new 0 0 1056.12 218.37;" xml:space="preserve">
<style type="text/css">
	.st0{fill:#00AACC;}
</style>
<g>
	<path class="st0" d="M68.8,116.4c-0.73,6.46-1.45,12.93-2.2,19.39c-1.21,10.39-2.48,20.78-3.66,31.17
		c-0.58,5.15-0.84,10.34-1.66,15.44c-0.23,1.46-1.92,2.69-2.96,4.01c-0.29,0.37-0.76,0.62-1.01,1.01c-2.65,4.04-4.21,4.32-8.91,3.33
		c-2.81-0.6-5.9-0.29-8.8,0.07c-3.6,0.45-4.96-1.42-4.95-4.42c0.01-5.02,0.4-10.05,0.61-15.07c0.64-14.87,3.45-29.45,5.85-44.09
		c0.94-5.74,0.61-11.68,1.14-17.51c0.64-7.01,1.49-14.01,2.41-20.99c0.99-7.46,2.19-14.88,3.28-22.33c0.07-0.49,0.05-1,0.02-1.5
		c-0.51-7.05,1.45-8.65,8.3-6.94c1.42,0.36,2.96,0.2,4.43,0.41c4.6,0.64,9.23,1.21,13.77,2.13c1.06,0.22,2.35,1.59,2.7,2.69
		c5.09,15.98,10.05,32.01,15,48.03c2.66,8.62,5.23,17.26,7.9,25.88c0.23,0.74,0.84,1.36,1.72,2.71c0.46-4.78,0.73-8.76,1.24-12.72
		c1.13-8.88,2.48-17.74,3.51-26.64c0.56-4.79,0.52-9.65,1-14.45c0.88-8.83,1.9-17.65,2.96-26.46c0.37-3.11,3.13-4.65,5.89-3.94
		c4.39,1.11,8.83,2.03,13.29,2.82c2.61,0.46,5.32,0.31,7.91,0.83c0.78,0.15,1.88,1.65,1.83,2.47c-0.27,4.93-0.68,9.86-1.33,14.75
		c-1.17,8.95-2.55,17.88-3.82,26.81c-0.92,6.48-1.9,12.95-2.7,19.44c-1.21,9.83-2.3,19.68-3.42,29.52
		c-0.96,8.48-1.91,16.96-2.8,25.45c-0.23,2.23-0.18,4.48-0.26,6.73c-0.08,2.47-1.49,3.34-3.83,3.64
		c-6.32,0.79-12.66,1.58-18.91,2.78c-4.94,0.95-7.26-0.61-9.6-7.38c-1.78-5.14-3.71-10.22-5.45-15.38
		c-3.39-10.06-6.65-20.17-10.04-30.22c-2.44-7.23-5.03-14.41-7.55-21.62C69.42,116.33,69.11,116.37,68.8,116.4z"/>
	<path class="st0" d="M601.18,99.7c2.37-4.51,4.14-8.68,6.6-12.38c5.64-8.5,11.6-16.79,17.49-25.12c4.4-6.22,8.83-12.43,13.37-18.55
		c1.86-2.51,3.87-4.97,6.16-7.07c1-0.92,3.11-1.56,4.33-1.16c5.8,1.93,11.46,4.28,17.18,6.44c3.1,1.17,3.92,4.03,1.67,6.47
		c-3.98,4.32-8.37,8.31-12.03,12.88c-6.29,7.85-12.16,16.03-18.19,24.09c-1.97,2.64-3.84,5.35-5.81,7.99
		c-1.73,2.32-2.53,4.59-1.04,7.46c3.54,6.83,6.91,13.75,10.3,20.65c1.57,3.18,2.97,6.45,4.55,9.62
		c4.96,9.95,10.09,19.83,14.92,29.84c3.02,6.26,5.74,12.68,8.39,19.1c1.89,4.57,1.36,6.21-2.85,8.43c-3.44,1.81-7.08,3.29-10.71,4.7
		c-4.23,1.63-6.68,0.86-8.63-3.05c-6.92-13.8-13.65-27.69-20.5-41.52c-1.66-3.34-3.56-6.56-5.28-9.87
		c-3.87-7.49-7.7-15.01-11.57-22.55c-1.8,2.07-3.29,4.56-5.47,6.07c-2.34,1.63-1.98,3.6-1.79,5.59c0.9,9.44,2.01,18.87,2.9,28.31
		c0.42,4.44,0.7,8.91,0.72,13.36c0.02,3.21-0.22,6.47-0.88,9.6c-0.47,2.22-1.36,3.91-4.86,3.09c-4.28-1-8.93-0.32-13.4-0.62
		c-4.57-0.31-6.32-2.4-6.77-6.84c-1.17-11.53-2.78-23.02-3.63-34.57c-0.9-12.25-1.29-24.55-1.58-36.84
		c-0.41-17.51-0.53-35.02-0.78-52.53c-0.01-0.37,0.02-0.76-0.03-1.12c-0.89-6.1-0.41-6.22,6.11-5.61c4.4,0.41,8.9-0.48,13.36-0.56
		c6.11-0.11,6.43,0.38,6.52,6.5c0.23,16.08,0.54,32.15,0.82,48.23C600.79,98.48,600.95,98.81,601.18,99.7z"/>
	<path class="st0" d="M233.69,99.44c2.75-4.44,5.31-9.01,8.31-13.28c4.17-5.93,8.68-11.64,13.04-17.44
		c2.88-3.83,5.51-7.88,8.71-11.41c3.85-4.23,6.47-4.06,11.43-1.29c3.06,1.71,6.55,2.63,9.88,3.84c1.15,0.42,2.69,0.29,3.48,1.02
		c0.91,0.86,1.92,3.24,1.62,3.5c-2.96,2.54-2.05,6.85-4.97,9.59c-2.7,2.54-4.13,6.37-6.43,9.4c-5.63,7.42-11.47,14.68-17.15,22.05
		c-2.87,3.73-5.68,7.52-8.3,11.42c-0.6,0.89-0.81,2.59-0.37,3.54c3.64,7.9,7.63,15.65,11.21,23.58c2.74,6.09,4.76,12.51,7.59,18.56
		c4.13,8.84,8.76,17.44,13.02,26.22c0.77,1.59,0.97,3.53,1.14,5.33c0.22,2.28-1.03,3.37-3.34,3.49c-2.6,0.14-5.31,0.25-5.7,3.87
		c-0.05,0.5-1,1.14-1.64,1.31c-4.05,1.08-8.09,2.34-12.21,2.87c-1.33,0.17-3.61-1.33-4.29-2.66c-3.6-7.08-6.96-14.28-10.15-21.56
		c-2.74-6.24-5.05-12.68-7.7-18.96c-3.9-9.24-7.94-18.42-11.94-27.62c-0.23-0.53-0.54-1.03-1.33-2.52
		c-0.68,3.05-1.21,5.09-1.58,7.17c-2.14,12.18-4.19,24.38-6.4,36.55c-0.75,4.11-1.73,8.2-2.95,12.19c-0.36,1.16-1.91,2.79-2.91,2.79
		c-5.07-0.01-10.14-0.45-15.21-0.82c-2.99-0.22-4.09-2.24-3.88-4.91c0.79-10.01,1.56-20.02,2.59-30c0.98-9.48,2.06-18.95,3.49-28.37
		c1.18-7.79,2.85-15.5,4.43-23.22c1.91-9.32,3.78-18.65,5.97-27.91c1.76-7.43,3.86-14.78,6.08-22.08c0.29-0.96,2.25-2.16,3.28-2.03
		c5.27,0.68,10.45,2.02,15.72,2.62c3.39,0.39,3.76,2.44,3.39,4.82c-0.54,3.4-1.73,6.7-2.31,10.1c-0.46,2.71-0.19,5.55-0.66,8.27
		c-1.21,7.16-2.65,14.29-4,21.43C233.01,99.08,233.35,99.26,233.69,99.44z"/>
	<path class="st0" d="M802.47,130.97c1.95,3.99,4.05,7.99,5.89,12.1c5.61,12.53,11.15,25.09,16.62,37.67
		c0.85,1.95,1.64,4.09,1.74,6.18c0.26,5.14-1.77,7.33-6.84,8.43c-2.74,0.6-5.4,1.61-8.14,2.17c-2.36,0.48-3.95-0.66-4.9-2.93
		c-2.68-6.34-5.41-12.67-8.23-18.95c-1.96-4.34-4.29-8.53-6.14-12.91c-2.61-6.18-4.91-12.5-7.39-18.73
		c-0.64-1.6-1.31-3.22-2.24-4.65c-0.64-0.98-2.06-2.5-2.59-2.3c-1.66,0.61-3.7,0.85-3.84,3.7c-0.54,11.12-1.41,22.23-2.19,33.35
		c-0.15,2.09-0.56,4.15-0.71,6.24c-0.22,2.99-2.05,4.84-4.57,3.56c-3.72-1.89-6.9-0.19-10.18,0.52c-5.54,1.2-7.7-0.17-7.46-5.63
		c0.44-10.29,0.99-20.57,1.52-30.86c0.22-4.21,0.45-8.41,0.75-12.61c0.97-13.57,2.01-27.13,2.95-40.7
		c0.58-8.28,0.96-16.57,1.56-24.84c0.43-5.9,0.74-11.85,1.73-17.67c0.65-3.81,3.23-4.6,7.24-4.34c3.68,0.23,7.43-0.69,11.12-0.54
		c6.79,0.27,13.82,0.02,20.26,1.77c4.39,1.19,10.34,1.15,12.78,6.79c0.32,0.73,1.14,1.41,1.9,1.76c6.49,2.96,9.37,8.73,11.75,14.9
		c1.4,3.62,3.33,7.13,4.07,10.88c2.04,10.3,1.48,20.29-4.07,29.76C819.7,121.83,811.64,126.58,802.47,130.97z M779.8,109.4
		c3.48,0,6.08,0.01,8.68,0c5.35-0.04,12.1-4.62,14.06-9.67c2.19-5.65,2-11.52,1.02-17.34c-0.27-1.6-1.11-3.36-2.23-4.52
		c-3.99-4.16-7.17-9.22-14.03-9.84c-4.03-0.36-3.87-1.11-4.12,3.12c-0.38,6.41-0.98,12.8-1.55,19.2
		C781.1,96.48,780.46,102.6,779.8,109.4z"/>
	<path class="st0" d="M694.2,167.63c-8.58,0.39-14.6-4.15-19.56-10.33c-4.3-5.36-8.43-10.9-12.21-16.64
		c-4.36-6.61-6.04-14.32-8.09-21.87c-2.74-10.09-1.18-20.24-0.45-30.29c0.24-3.38,2.91-7.02,5.37-9.71
		c3.87-4.22,8.4-7.87,12.86-11.51c6.06-4.95,13.57-6.74,20.89-8.76c1.4-0.39,3.15,0.28,4.69,0.65c5.92,1.41,12.41,1.8,17.6,4.59
		c9.7,5.21,18.87,11.57,21.6,23.54c1.27,5.58,3.69,11.04,4.09,16.66c0.54,7.63,0.16,15.43-0.81,23.02
		c-0.72,5.63-2.62,11.22-4.77,16.52c-1.33,3.29-3.85,6.22-6.26,8.93C719.88,162.85,707.79,167.02,694.2,167.63z M677.33,111.06
		c0.16,0.07,0.32,0.14,0.47,0.21c0.35,2.94,0.83,5.86,1.03,8.81c0.65,9.84,6.5,15.04,15.57,16.83c7.25,1.43,11.69-2.89,15.67-8.43
		c7.51-10.44,8.89-21.39,3.5-32.96c-2.1-4.5-3.88-9.85-10.21-10.44c-4.23-0.39-8.21-0.38-12.37,1.58
		c-5.22,2.46-8.69,6.16-10.52,11.27C678.96,102.14,678.34,106.67,677.33,111.06z"/>
	<path class="st0" d="M366.18,117.68c-1.46,13.55-2.23,27.21-4.58,40.6c-2.25,12.81-11.72,20.02-23.46,24.15
		c-4.04,1.42-8.44,2.04-12.74,2.51c-11.5,1.26-19.57-4.58-26.4-13.03c-8.01-9.91-12.98-21.32-14.56-33.71
		c-1.65-12.87-2.57-26.03,2.67-38.56c1.44-3.44,2.5-7.24,4.73-10.09c2.42-3.09,5.73-5.78,9.17-7.71c5.25-2.93,10.89-5.2,16.47-7.49
		c8.68-3.56,17.18-2.45,25.29,1.85c4.14,2.19,8.49,4.32,11.95,7.37c6.52,5.76,8.73,13.9,10.09,22.15c0.65,3.9,0.6,7.91,0.87,11.87
		C365.85,117.64,366.02,117.66,366.18,117.68z M309.24,127.92c-0.07,0.01-0.13,0.01-0.2,0.02c0.32,4.45,0.77,8.89,0.92,13.35
		c0.2,5.86,1.66,11.27,3.95,16.72c2.62,6.21,12.95,7.98,17.71,1.82c4.53-5.86,6-12.49,7.21-19.33c0.98-5.56,1.98-11.2,2.08-16.82
		c0.13-6.62,2.17-13.7-3.02-19.59c-0.86-0.98-1.15-2.6-2.15-3.31c-2.65-1.9-5.41-4.64-8.35-4.96c-7.93-0.85-17.96,8.78-18.14,16.65
		C309.14,117.6,309.24,122.76,309.24,127.92z"/>
	<path class="st0" d="M863.57,133.18c-1.54,5.16-2.99,10.07-4.49,14.97c-2.56,8.41-5.01,16.86-7.82,25.19
		c-1.12,3.31-4.5,2.01-6.46,1.39c-3.44-1.09-6.62-3.09-9.79-4.9c-4.85-2.78-5.96-7.39-3.46-12.95c3.32-7.38,6.99-14.64,9.78-22.21
		c3.2-8.69,5.42-17.74,8.43-26.51c2.42-7.07,5.4-13.95,8.1-20.93c1.8-4.64,3.67-9.26,5.3-13.96c2.33-6.69,4.41-13.47,6.75-20.16
		c0.32-0.9,1.53-2.11,2.34-2.12c3.58-0.03,7.17,0.37,10.75,0.54c1.93,0.09,3.87,0.02,6.01,0.02c3.81,10.01,7.99,20.23,11.56,30.65
		c2.65,7.74,4.5,15.74,6.73,23.63c2.29,8.12,4.51,16.26,6.92,24.34c3.24,10.89,6.63,21.74,9.92,32.62c0.43,1.4,0.91,2.84,1,4.28
		c0.34,5.14-0.15,5.3-5.15,6.61c-3.99,1.04-7.87,2.69-11.59,4.49c-3.57,1.73-6.64,0.99-7.63-2.91c-2.44-9.6-4.51-19.29-6.81-28.93
		c-0.77-3.21-1.6-6.43-2.81-9.49c-0.32-0.81-2.1-1.35-3.27-1.47C880.04,134.57,872.15,133.93,863.57,133.18z M885.89,111.75
		c-1.99-6.98-4.07-14.3-6.22-21.83c-2.63,7.03-5.26,14.06-8.17,21.83C876.67,111.75,881.31,111.75,885.89,111.75z"/>
	<path class="st0" d="M495.44,148.55c0.72,6.96,1.52,14.58,2.3,22.21c0.08,0.74,0.03,1.5,0.03,2.25c0.02,4.98-0.62,5.56-5.78,5.93
		c-1.41,0.1-2.77,0.88-4.19,1.11c-2.71,0.44-5.57,0.32-8.15,1.14c-4.28,1.35-5.77,0.79-6.29-3.69c-0.86-7.35-1.55-14.71-2.27-22.08
		c-0.53-5.41-0.91-10.83-1.63-16.21c-0.12-0.9-1.55-2.12-2.56-2.33c-5.42-1.09-10.88-2.04-16.36-2.71c-1.2-0.15-3.26,0.7-3.71,1.66
		c-1.81,3.8-3.17,7.81-4.63,11.76c-3.01,8.13-3.41,8.46-11.69,6.4c-3.06-0.76-5.94-2.25-8.96-3.22c-4.38-1.41-3.08-4.65-2.07-7.22
		c4.73-12.1,9.77-24.07,14.58-36.13c2.18-5.46,3.99-11.07,6.17-16.54c3.71-9.32,7.59-18.58,11.34-27.88
		c1.88-4.66,3.56-9.41,5.5-14.05c0.34-0.81,1.53-1.74,2.34-1.75c1.01-0.01,2.01,0.9,3.03,1.39c1.8,0.85,3.57,2.3,5.42,2.4
		c4.91,0.26,9.85-0.14,14.78-0.12c2.79,0.01,3.93,1.99,4.16,4.44c1.24,13.46,2.31,26.94,3.62,40.39
		c1.58,16.15,3.36,32.28,5.02,48.42C495.55,145.37,495.44,146.63,495.44,148.55z M457.03,112.13c3.72,0.44,6.85,0.81,10.23,1.21
		c-0.58-7.83-1.12-15.12-1.67-22.4c-0.22-0.03-0.43-0.06-0.65-0.09C462.36,97.82,459.76,104.79,457.03,112.13z"/>
	<path class="st0" d="M984.76,179.62c-4.93-1.55-10-3.19-15.1-4.73c-1.76-0.53-3.61-0.76-5.38-1.28
		c-9.26-2.75-16.57-7.87-20.74-16.89c-2.02-4.35-4.65-8.47-6.25-12.96c-1.97-5.53-2.77-11.32-1.91-17.31
		c0.47-3.31-0.14-6.76,0.14-10.11c0.48-5.78,0.74-11.67,2.13-17.26c0.98-3.93,3.67-7.44,5.62-11.12c3.66-6.92,8.52-12.95,15-17.27
		c7.63-5.08,15.86-7.42,25.5-7.25c7.79,0.14,13.51,4.09,20.07,6.38c5.1,1.78,8.88,6.07,10.73,11.22c2.16,6,3.65,12.25,5.24,18.45
		c1.03,4.02-2.93,8.76-6.99,9.01c-2.58,0.16-5.16,0.69-7.7,1.23c-3.97,0.86-6.09-0.14-7.59-3.98c-1.07-2.76-2.06-5.55-2.96-8.37
		c-2.01-6.3-7.57-7.97-12.92-9.04c-5.07-1.02-9.38,0.79-12.95,5.39c-3.49,4.51-7.37,8.58-8.57,14.35
		c-1.15,5.54-3.32,11.17-2.98,16.63c0.39,6.18,1.72,13.14,5.09,18.11c5.15,7.6,13.01,12.83,22.79,13.5c4.54,0.31,7.89-2.64,9.02-7.1
		c0.87-3.44,1.71-6.89,2.62-10.33c0.79-2.99,2.2-4.1,5.74-3.26c4.3,1.02,8.89,0.74,13.33,1.27c4.11,0.49,6.48,3.91,5.52,8.09
		c-1.34,5.85-3.02,11.39-6.51,16.66c-2.78,4.2-5.59,7.78-9.88,10.11c-3.49,1.89-7.15,3.49-10.84,4.96
		C991.23,177.85,988.27,178.55,984.76,179.62z"/>
	<path class="st0" d="M411.08,168.05c1.88-0.26,3.67-0.54,5.46-0.73c7.73-0.82,15.46-1.82,23.21-2.34c4.53-0.3,5.69,2,5.04,6.62
		c-0.59,4.2-0.45,8.52-0.36,12.78c0.05,2.66-0.38,4.59-3.45,4.97c-5.61,0.7-11.21,1.48-16.82,2.2c-7.69,0.99-15.36,2.06-23.07,2.87
		c-4.81,0.51-9.66,0.64-14.49,0.86c-2.59,0.12-3.43-1.41-3.42-3.8c0.01-6.79,0.22-13.59-0.16-20.36c-0.83-14.61-1.9-29.21-3.03-43.8
		c-0.75-9.75-1.48-19.51-2.75-29.2c-1.41-10.72-3.38-21.36-5.21-32.03c-0.72-4.22,1.6-8.63,5.63-9.84
		c4.55-1.36,9.12-2.64,13.74-3.76c4.18-1.01,5.46-0.02,6.51,4.13c2.73,10.85,4.77,21.75,5.37,33.01c0.66,12.29,2.42,24.53,3.6,36.8
		c1.08,11.18,2,22.37,3.04,33.56C410.15,162.42,410.61,164.85,411.08,168.05z"/>
	<path class="st0" d="M168.39,197.45c-2.75,0-5.51,0-8.26,0c-3.42,0-5.09-2.02-5.16-5.12c-0.39-17.84-0.93-35.69-0.86-53.54
		c0.05-12.44,0.93-24.88,1.54-37.31c0.36-7.3,0.9-14.6,1.38-21.89c0.1-1.58-0.29-4.03,0.53-4.54c1.73-1.09,4.07-1.46,6.2-1.59
		c4.03-0.24,8.08-0.11,12.13-0.13c4.93-0.02,6.53,1.39,6.47,6.3c-0.05,4.08-0.64,8.16-0.71,12.24c-0.04,2.7,0.64,5.41,0.62,8.11
		c-0.18,17.58-0.55,35.16-0.66,52.73c-0.04,6.83,0.73,13.66,0.62,20.49c-0.11,6.93-0.89,13.84-1.3,20.77
		c-0.15,2.56-1.53,3.51-3.89,3.5c-2.88-0.01-5.76,0-8.64,0C168.39,197.48,168.39,197.46,168.39,197.45z"/>
	<path class="st0" d="M997.58,57.91c-2.95-0.85-4.93-1.5-6.95-2c-2.58-0.63-5.18-1.24-7.8-1.67c-2.71-0.44-4.17-3.28-2.69-6.36
		c2.41-5.01,5.08-9.9,7.72-14.8c3.27-6.07,6.54-12.15,9.98-18.13c0.91-1.58,2.2-2.87,4.62-1.86c4.27,1.79,8.74,3.11,13.04,4.85
		c3.67,1.49,4.29,4.47,2.33,7.79c-5.59,9.52-10.96,19.16-16.57,28.67C1000.38,55.87,998.71,56.85,997.58,57.91z"/>
	<path class="st0" d="M168.93,64.05c-4.77-0.72-9.43-0.29-12.95-4.22c-2.57-2.87-4.32-13.77-1.65-16.07
		c3.02-2.6,7.01-4.75,10.89-5.55c6.75-1.4,10.3,0.79,13.3,6.66c2.42,4.73,2.9,12.64-1.64,16.81
		C175.06,63.36,171.63,63.31,168.93,64.05z"/>
</g>
</svg>
